# AST/ASF file generated using VICON BodyLanguage
# -----------------------------------------------
:version 1.10
:name VICON
:units
  mass 1.0
  length 0.1
  angle deg
:documentation
   .ast/.asf automatically generated from VICON data using
   VICON BodyBuilder and BodyLanguage model FULLBODY5.MOD
:root
   order TX TY TZ RZ RY RX
   axis XYZ
   position 0 0 0  
   orientation 0 -0 0 
:bonedata
  begin
     id 1 
     name lhipjoint
     direction 0.969109 -0.218487 0.11442 
     length 0.544217 
     axis 0 -0 0  XYZ
  end
  begin
     id 2 
     name lfemur
     direction 0.173648 -0.984808 0  
     length 1.81499  
     axis 0 -0 10  XYZ
    dof rx ry rz
    limits (-180.0 180.0)
           (-180.0 180.0)
           (-180.0 180.0)
  end
  begin
     id 3 
     name ltibia
     direction 0.173515 -0.984831 0   
     length 1.55296   
     axis 0 -0 10   XYZ
    dof rx ry rz
    limits (-180.0 180.0)
           (-180.0 180.0)
           (-180.0 180.0)
  end
  begin
     id 4 
     name lfoot
     direction 7.36097e-012 -0.333012 0.942922   
     length 0.509062   
     axis -90 -1.73656e-015 10   XYZ
    dof rx ry rz
    limits (-180.0 180.0)
           (-180.0 180.0)
           (-180.0 180.0)
  end
  begin
     id 5 
     name ltoes
     direction 7.7847e-012 -4.42403e-011 1   
     length 0.249732   
     axis -90 -1.73656e-015 10   XYZ
    dof rx ry rz
    limits (-180.0 180.0)
           (-180.0 180.0)
           (-180.0 180.0)
  end
  begin
     id 6 
     name rhipjoint
     direction -0.966745 -0.226554 0.118645   
     length 0.524838  
     axis 0 -0 0  XYZ 
  end
  begin
     id 7 
     name rfemur
     direction -0.173648 -0.984808 0   
     length 1.84625   
     axis 0 -0 -10   XYZ
    dof rx ry rz
    limits (-180.0 180.0)
           (-180.0 180.0)
           (-180.0 180.0)
  end
  begin
     id 8 
     name rtibia
     direction -0.173714 -0.984796 0   
     length 1.577   
     axis 0 -0 -10   XYZ
    dof rx ry rz
    limits (-180.0 180.0)
           (-180.0 180.0)
           (-180.0 180.0)
 end
 begin
     id 9 
     name rfoot
     direction -0.0183819 -0.0406144 0.999006   
     length 0.490111  
     axis -90 1.73656e-015 -10   XYZ
    dof rx ry rz
    limits (-180.0 180.0)
           (-180.0 180.0)
           (-180.0 180.0)
  end
  begin
     id 10 
     name rtoes
     direction -7.79087e-012 -4.42375e-011 1   
     length 0.245053   
     axis -90 1.73656e-015 -10   XYZ
    dof rx ry rz
    limits (-180.0 180.0)
           (-180.0 180.0)
           (-180.0 180.0)
  end
  begin
     id 11 
     name lowerback
     direction -0.0664844 0.980601 0.184393   
     length 0.458979   
     axis 0 -0 0   XYZ
    dof rx ry rz
    limits (-180.0 180.0)
           (-180.0 180.0)
           (-180.0 180.0)
  end
  begin
     id 12 
     name upperback
     direction 0.0135995 0.999573 0.02588   
     length 0.463983   
     axis 0 -0 0   XYZ
    dof rx ry rz
    limits (-180.0 180.0)
           (-180.0 180.0)
           (-180.0 180.0)
  end
  begin
     id 13 
     name thorax
     direction 0.0468402 0.997311 -0.0563691   
     length 0.482746   
     axis 0 -0 0   XYZ
    dof rx ry rz
    limits (-180.0 180.0)
           (-180.0 180.0)
           (-180.0 180.0)
  end
  begin
     id 14 
     name lowerneck
     direction -0.00174311 0.988586 -0.150647   
     length 0.364383   
     axis 0 -0 0   XYZ
    dof rx ry rz
    limits (-180.0 180.0)
           (-180.0 180.0)
           (-180.0 180.0)
  end
  begin
     id 15 
     name upperneck
     direction -0.02653 0.999379 -0.0231908   
     length 0.361006   
     axis 0 -0 0   XYZ
    dof rx ry rz
    limits (-180.0 180.0)
           (-180.0 180.0)
           (-180.0 180.0)
  end
  begin
     id 16
     name head
     direction -0.00819207 0.999941 0.00714285  
     length 0.378714  
     axis 0 -0 0   XYZ
    dof rx ry rz
    limits (-180.0 180.0)
           (-180.0 180.0)
           (-180.0 180.0)
  end
  begin
     id 17 
     name lshoulderjoint
     direction 0.981627 -0.190809 0  
     length 0.612969  
     axis 0 -0 -11   XYZ
    dof rx ry rz
    limits (-180.0 180.0)
           (-180.0 180.0)
           (-180.0 180.0)
  end
  begin
     id 18 
     name lhumerus
     direction 0.48481 -0.87462 -9.72962e-027   
     length 1.19637   
     axis -180 5.14477e-009 -151   XYZ
    dof rx ry rz
    limits (-180.0 180.0)
           (-180.0 180.0)
           (-180.0 180.0)
  end
  begin
     id 19
     name lradius
     direction 0.48481 -0.87462 -2.35761e-026   
     length 0.637735   
     axis -180 5.14477e-009 -151   XYZ
    dof rx ry rz
    limits (-180.0 180.0)
           (-180.0 180.0)
           (-180.0 180.0)
  end
  begin
     id 20
     name lwrist
     direction 0.48481 -0.87462 -5.51856e-026   
     length 0.318868   
     axis -180 5.14477e-009 -151   XYZ
    dof rx ry rz
    limits (-180.0 180.0)
           (-180.0 180.0)
           (-180.0 180.0)
  end
  begin
     id 21 
     name lhand
     direction 0.477747 -0.861928 -0.169816   
     length 0.29526   
     axis -180 5.14477e-009 -151   XYZ
    dof rx ry rz
    limits (-180.0 180.0)
           (-180.0 180.0)
           (-180.0 180.0)
  end
  begin
     id 22 
     name rshoulderjoint
     direction -0.981627 -0.190809 0   
     length 0.572347  
     axis 0 -0 11   XYZ 
    dof rx ry rz
    limits (-180.0 180.0)
           (-180.0 180.0)
           (-180.0 180.0)
  end
  begin
     id 23 
     name rhumerus
     direction -0.48481 -0.87462 1.64836e-026  
     length 1.28846   
     axis 180 5.14477e-009 151   XYZ
    dof rx ry rz
    limits (-180.0 180.0)
           (-180.0 180.0)
           (-180.0 180.0)
  end
  begin
     id 24 
     name rradius
     direction -0.48481 -0.87462 2.86827e-026   
     length 0.62107   
     axis 180 5.14477e-009 151   XYZ
    dof rx ry rz
    limits (-180.0 180.0)
           (-180.0 180.0)
           (-180.0 180.0)
  end
  begin
     id 25 
     name rwrist
     direction -0.48481 -0.87462 5.20942e-026   
     length 0.310535   
     axis 180 5.14477e-009 151   XYZ
    dof rx ry rz
    limits (-180.0 180.0)
           (-180.0 180.0)
           (-180.0 180.0)
  end
  begin
     id 26
     name rhand
     direction -0.477664 -0.861515 -0.172133   
     length 0.291321   
     axis 180 5.14477e-009 151   XYZ
    dof rx ry rz
    limits (-180.0 180.0)
           (-180.0 180.0)
           (-180.0 180.0)
  end
:hierarchy
  begin
    root lhipjoint rhipjoint lowerback 
    lhipjoint lfemur
    lfemur ltibia
    ltibia lfoot
    lfoot ltoes
    rhipjoint rfemur
    rfemur rtibia
    rtibia rfoot
    rfoot rtoes
    lowerback upperback
    upperback thorax
    thorax lowerneck lshoulderjoint rshoulderjoint
    lowerneck upperneck
    upperneck head
    lshoulderjoint lhumerus
    lhumerus lradius
    lradius lwrist
    lwrist lhand
    rshoulderjoint rhumerus
    rhumerus rradius
    rradius rwrist
    rwrist rhand
  end

:FULLY-SPECIFIED
:DEGREES
874
root 7.85908 3.5053 -0.537025 110.83 -64.4076 101.195
lowerback -19.8203 1.11198 -14.863
upperback -6.33178 3.93107 -2.76948
thorax 3.21927 1.79248 6.20453
lowerneck 12.0271 -2.80616 1.81626
upperneck 1.05251 -3.70244 -4.01992
head -1.85214 -1.77641 -1.40375
rshoulderjoint -2.19218 6.8123 -28.8856
rhumerus 343.271 -2.76633 -415.495
rradius 27.8029 1.01778e-013 -1.41535e-013
rwrist 5.39532e-013 -4.95793 -2.98898e-013
rhand -6.46008 4.23609 28.0322
lshoulderjoint -2.07338 -5.88765 30.4396
lhumerus 350.274 20.3884 413.167
lradius 18.0683 1.7175e-013 -3.00165e-014
lwrist 4.22414e-013 -7.24897 -1.06606e-013
lhand 7.82174 6.33414 -30.8009
rfemur -19.9153 12.583 1.53776
rtibia 58.3394 1.43125e-014 1.11319e-014
rfoot -194.273 -36.6533 188.717
rtoes -4.77083e-014 7.95139e-014 -3.18055e-014
lfemur -45.5916 -9.08927 -17.9892
ltibia 32.0514 -7.95139e-015 1.59028e-015
lfoot -13.11 10.609 9.28217
ltoes 8.15017e-015 2.71465e-014 3.53837e-014
875
root 7.81764 3.51659 -0.533879 111.435 -64.5807 101.605
lowerback -19.6694 0.962185 -15.0466
upperback -6.24072 3.75681 -2.72176
thorax 3.25824 1.70392 6.31942
lowerneck 12.0986 -2.67625 1.77723
upperneck 0.991869 -3.53837 -4.04666
head -1.87997 -1.69306 -1.41406
rshoulderjoint -2.21465 6.85344 -28.9564
rhumerus 343.743 -2.95954 -415.394
rradius 27.811 -6.52014e-014 9.06458e-014
rwrist -3.28747e-013 -4.79443 1.95094e-013
rhand -6.20867 4.12894 28.4398
lshoulderjoint -2.05057 -5.84403 30.3738
lhumerus 350.988 19.5193 413.388
lradius 18.2188 -6.36111e-014 1.18078e-013
lwrist -3.07016e-013 -7.28399 2.26855e-013
lhand 7.93913 6.22687 -31.0269
rfemur -21.6083 11.5942 1.08689
rtibia 60.6973 -7.95139e-015 -1.43125e-014
rfoot -194.035 -39.6928 189.295
rtoes -4.6118e-014 8.5875e-014 1.22451e-013
lfemur -44.104 -9.14723 -18.4107
ltibia 30.9255 6.36111e-015 -1.74931e-014
lfoot -13.1408 10.4312 9.46709
ltoes -7.56376e-014 1.09403e-013 3.97569e-015
876
root 7.77683 3.52782 -0.530854 111.954 -64.7788 101.949
lowerback -19.4175 0.833078 -15.1886
upperback -6.22022 3.57175 -2.70119
thorax 3.17456 1.62044 6.37263
lowerneck 12.2376 -2.57792 1.82015
upperneck 0.993449 -3.40595 -4.11521
head -1.90333 -1.62501 -1.45034
rshoulderjoint -2.23766 6.901 -29.0146
rhumerus 344.097 -3.33206 -415.331
rradius 27.8436 3.73715e-014 -1.17681e-013
rwrist 8.6169e-014 -4.73489 -2.4255e-013
rhand -5.90549 4.16635 28.8148
lshoulderjoint -2.05878 -5.86617 30.378
lhumerus 351.558 18.4048 413.573
lradius 18.4203 6.36111e-014 -1.02374e-013
lwrist 8.25463e-014 -7.17853 -2.22795e-013
lhand 7.7663 6.25667 -31.4326
rfemur -23.2657 10.6111 0.720253
rtibia 62.6836 -8.74653e-015 4.77083e-015
rfoot -192.942 -42.0689 188.665
rtoes -3.97569e-014 -6.36111e-015 1.82882e-014
lfemur -42.5521 -8.8093 -19.0457
ltibia 29.7105 -1.27222e-014 2.22639e-014
lfoot -13.1256 9.96904 9.2189
ltoes -4.60683e-014 -1.53484e-013 -5.08889e-014
877
root 7.73645 3.53878 -0.527481 112.321 -65.0283 102.161
lowerback -19.1323 0.700078 -15.2844
upperback -6.16913 3.37312 -2.6757
thorax 3.11498 1.52843 6.40385
lowerneck 12.3446 -2.49715 1.85069
upperneck 0.991717 -3.2979 -4.16908
head -1.92198 -1.56957 -1.47871
rshoulderjoint -2.25715 6.93624 -29.0756
rhumerus 344.456 -3.65823 -415.27
rradius 27.9096 -1.48691e-013 -1.90833e-013
rwrist 6.14275e-013 -4.64534 -1.45591e-013
rhand -5.68805 4.10064 29.2174
lshoulderjoint -2.05491 -5.85157 30.3887
lhumerus 352.191 17.4342 413.779
lradius 18.6446 -2.35361e-013 -3.97569e-014
lwrist 6.07469e-013 -7.17297 1.49864e-013
lhand 7.60239 6.23426 -31.8603
rfemur -24.8816 9.63683 0.445849
rtibia 64.3377 -1.51076e-014 3.02153e-014
rfoot -191.021 -42.6541 186.603
rtoes 2.13097e-013 -1.30403e-013 -3.27597e-013
lfemur -40.9837 -8.89258 -19.4621
ltibia 28.4244 -2.8625e-014 2.06736e-014
lfoot -13.0331 9.53526 9.41972
ltoes 2.71838e-013 -2.13686e-013 -1.1609e-013
878
root 7.69618 3.54952 -0.524033 112.546 -65.3055 102.269
lowerback -18.8001 0.561235 -15.3399
upperback -6.15495 3.14411 -2.63298
thorax 2.99863 1.42719 6.42406
lowerneck 12.5286 -2.40254 1.8628
upperneck 1.00871 -3.17445 -4.22318
head -1.94721 -1.50649 -1.50445
rshoulderjoint -2.29171 7.01999 -29.1309
rhumerus 344.713 -3.9691 -415.203
rradius 28.0048 1.90038e-013 3.73715e-013
rwrist 2.45706e-013 -4.63407 5.00187e-013
rhand -5.47309 4.06269 29.6546
lshoulderjoint -2.06995 -5.90963 30.3432
lhumerus 352.708 16.8072 413.894
lradius 18.896 3.89618e-013 2.38144e-013
lwrist 1.31468e-013 -7.30045 2.11632e-013
lhand 7.58738 6.14846 -32.2421
rfemur -26.465 8.72206 0.26377
rtibia 65.6686 3.53837e-014 -3.45885e-014
rfoot -188.822 -42.7857 183.771
rtoes 1.55847e-013 1.62208e-013 4.17448e-015
lfemur -39.371 -9.00338 -19.8578
ltibia 27.0465 1.59028e-014 -4.77083e-014
lfoot -12.8674 9.03434 9.61703
ltoes 9.57148e-014 2.10055e-013 8.82604e-014
879
root 7.65652 3.56008 -0.520896 112.597 -65.6557 102.306
lowerback -18.3927 0.431932 -15.2651
upperback -6.1129 2.8981 -2.60001
thorax 2.88859 1.3166 6.35827
lowerneck 12.728 -2.32191 1.86298
upperneck 0.985586 -3.06795 -4.18495
head -1.98642 -1.45348 -1.49711
rshoulderjoint -2.30559 7.07389 -29.1044
rhumerus 345.003 -4.22275 -415.125
rradius 28.1448 3.65764e-014 1.55052e-013
rwrist -2.2018e-013 -4.63956 2.25764e-013
rhand -5.25101 4.06882 30.1167
lshoulderjoint -2.07571 -5.92206 30.3555
lhumerus 353.226 15.8153 413.972
lradius 19.1751 6.20208e-014 1.02573e-013
lwrist -2.51781e-013 -7.41854 1.28296e-013
lhand 7.45174 6.35699 -32.7136
rfemur -27.9836 7.81739 0.252326
rtibia 66.7016 2.5842e-014 -3.22031e-014
rfoot -186.71 -42.5838 180.732
rtoes -5.725e-014 2.38542e-013 2.16675e-013
lfemur -37.7077 -9.3407 -20.0511
ltibia 25.5871 7.95139e-015 -5.08889e-014
lfoot -12.6431 8.53637 10.0109
ltoes -1.10002e-013 3.22193e-013 1.00187e-013
880
root 7.61738 3.5704 -0.517806 112.577 -65.9982 102.305
lowerback -17.9582 0.315996 -15.142
upperback -6.08947 2.65446 -2.58338
thorax 2.7463 1.20923 6.24898
lowerneck 12.8283 -2.24917 1.97718
upperneck 1.06947 -2.95656 -4.21954
head -1.97624 -1.3984 -1.53463
rshoulderjoint -2.30722 7.10399 -29.045
rhumerus 345.242 -4.42788 -415.05
rradius 28.3144 -7.71285e-014 -3.29187e-013
rwrist 8.16785e-013 -4.53974 -4.45881e-013
rhand -5.03671 3.99308 30.5791
lshoulderjoint -2.09402 -5.95101 30.426
lhumerus 353.725 15.2636 414.061
lradius 19.4552 -1.82882e-013 -9.38264e-014
lwrist 8.20129e-013 -7.75334 4.97534e-014
lhand 7.4707 6.40681 -33.1163
rfemur -29.5088 6.98013 0.302538
rtibia 67.4552 -3.57812e-015 5.96354e-015
rfoot -185.277 -43.5455 178.351
rtoes 2.48083e-013 -1.24042e-013 -3.10104e-013
lfemur -36.0276 -9.56956 -20.2681
ltibia 24.0583 1.59028e-015 -1.59028e-015
lfoot -12.3987 8.00947 10.2671
ltoes 2.23509e-013 -8.78294e-014 4.77083e-015
881
root 7.57816 3.58027 -0.514682 112.505 -66.3984 102.25
lowerback -17.528 0.179531 -15.0481
upperback -6.01364 2.39961 -2.51814
thorax 2.66099 1.09247 6.21015
lowerneck 12.9259 -2.16765 1.96287
upperneck 1.10838 -2.85146 -4.21246
head -1.97684 -1.34704 -1.53543
rshoulderjoint -2.33874 7.19193 -29.0677
rhumerus 345.478 -4.6184 -414.959
rradius 28.525 -3.02153e-014 1.24837e-013
rwrist -4.37044e-013 -4.43405 2.21313e-013
rhand -4.81022 3.92127 31.0388
lshoulderjoint -2.10225 -5.98766 30.3867
lhumerus 354.312 14.1142 414.128
lradius 19.7761 -7.79236e-014 1.10524e-013
lwrist -4.57351e-013 -7.69846 1.94976e-013
lhand 7.31861 6.60975 -33.6833
rfemur -30.9454 6.16816 0.386691
rtibia 67.8894 1.27222e-014 -1.31198e-014
rfoot -181.923 -37.9152 173.829
rtoes -1.78111e-013 6.36111e-014 2.04351e-013
lfemur -34.2876 -10.1077 -20.3735
ltibia 22.471 3.18055e-014 -2.06736e-014
lfoot -12.3304 7.61384 10.8608
ltoes -1.44516e-013 1.63982e-013 1.08934e-013
882
root 7.5395 3.58991 -0.51209 112.318 -66.7622 102.178
lowerback -17.1196 0.0465193 -14.8887
upperback -5.93154 2.14465 -2.41997
thorax 2.59586 0.974443 6.17367
lowerneck 12.9798 -2.08696 1.93956
upperneck 1.1224 -2.7484 -4.19488
head -1.97755 -1.29672 -1.53133
rshoulderjoint -2.35568 7.22538 -29.1118
rhumerus 345.712 -4.58785 -414.887
rradius 28.7879 5.1684e-015 -2.82274e-013
rwrist 1.55971e-012 -4.31485 -3.87934e-013
rhand -4.63955 3.77112 31.5156
lshoulderjoint -2.08765 -5.94688 30.3837
lhumerus 354.926 13.4735 414.227
lradius 20.1205 4.45278e-014 -1.4074e-013
lwrist 1.65056e-012 -7.92382 -7.22523e-014
lhand 7.37887 6.62546 -34.0585
rfemur -32.3391 5.46853 0.589052
rtibia 68.054 -2.24766e-014 2.06736e-014
rfoot -180.854 -40.8613 171.996
rtoes 5.08889e-014 -2.8943e-013 -1.90833e-013
lfemur -32.5824 -10.6857 -20.3473
ltibia 20.8251 6.36111e-015 3.81667e-014
lfoot -11.8805 7.07545 11.4144
ltoes 1.05604e-013 -2.11816e-013 -3.29983e-014
883
root 7.50064 3.59871 -0.509452 112.08 -67.0845 102.088
lowerback -16.7567 -0.0669181 -14.6823
upperback -5.86962 1.91357 -2.32657
thorax 2.52921 0.867788 6.11247
lowerneck 13.0231 -2.03094 1.9413
upperneck 1.19206 -2.67339 -4.16551
head -1.95887 -1.26173 -1.52609
rshoulderjoint -2.34423 7.14156 -29.226
rhumerus 345.937 -4.3372 -414.888
rradius 29.093 -6.55989e-014 -4.2858e-013
rwrist 1.0909e-012 -4.35561 -6.12037e-013
rhand -4.48512 3.73245 31.9925
lshoulderjoint -2.07486 -5.91115 30.3811
lhumerus 355.52 12.6187 414.291
lradius 20.4925 -1.1609e-013 -2.2741e-013
lwrist 1.19181e-012 -8.07768 -1.75077e-013
lhand 7.41314 6.7597 -34.4069
rfemur -33.7462 4.85068 0.839753
rtibia 67.9362 -3.01159e-014 4.19436e-014
rfoot -179.9 -41.519 170.27
rtoes 2.3218e-013 -2.29e-013 -3.37139e-013
lfemur -30.8946 -11.2989 -20.2859
ltibia 19.1239 -3.65764e-014 3.81667e-014
lfoot -11.4941 6.55831 12.0159
ltoes 2.92437e-013 -2.84698e-013 -1.64991e-013
884
root 7.46213 3.60709 -0.507241 111.871 -67.3545 102.078
lowerback -16.4101 -0.173793 -14.4784
upperback -5.84129 1.68946 -2.18679
thorax 2.42934 0.768347 6.10513
lowerneck 13.1073 -1.96695 1.88299
upperneck 1.24079 -2.59728 -4.13191
head -1.95322 -1.22595 -1.50876
rshoulderjoint -2.36591 7.17017 -29.3154
rhumerus 346.056 -4.2488 -414.805
rradius 29.4359 -3.57812e-015 -5.40694e-014
rwrist -9.887e-014 -4.25731 -9.12953e-014
rhand -4.36793 3.66341 32.3997
lshoulderjoint -2.05885 -5.87606 30.3485
lhumerus 356.017 11.9724 414.349
lradius 20.902 -2.06736e-014 2.3059e-014
lwrist -5.62724e-014 -8.46295 4.82335e-014
lhand 7.50995 6.98651 -34.6177
rfemur -35.1331 4.42827 1.13568
rtibia 67.5047 7.95139e-016 -6.36111e-015
rfoot -178.902 -42.134 168.508
rtoes -1.20861e-013 1.49486e-013 1.47896e-013
lfemur -29.1905 -11.3438 -20.3782
ltibia 17.3653 1.11319e-014 0
lfoot -11.1531 6.06116 12.0696
ltoes -1.57773e-013 4.17052e-014 1.31198e-014
